# xmcd CD database file
#
# Track frame offsets:
#	150
#	15656
#	33698
#	52433
#	75066
#	95712
#	120851
#	145590
#	179735
#	203468
#
# Disc length: 3077 seconds
#
# Revision: 0
# Processed by: cddbd v1.5.2PL0 Copyright (c) Steve Scherf et al.
# Submitted via: CDex 1.51
#
DISCID=7e0c030a
DTITLE=Maya Hatch - My Foolish Heart
DYEAR=2009
DGENRE=Jazz
TTITLE0=This Can't Be Love 
TTITLE1=Agua De Beber 
TTITLE2=I'm Beginning To See The Light 
TTITLE3=You Go To My Head 
TTITLE4=Someday My Prince Will Come 
TTITLE5=Body and Soul 
TTITLE6=How Deep Is The Ocean? 
TTITLE7=My Funny Valentine 
TTITLE8=Willow Weep For Me 
TTITLE9=My Foolish Heart 
EXTD=YEAR: 2009
EXTT0=
EXTT1=
EXTT2=
EXTT3=
EXTT4=
EXTT5=
EXTT6=
EXTT7=
EXTT8=
EXTT9=
PLAYORDER=
